<svg xmlns="http://www.w3.org/2000/svg" viewBox="0 0 110.09 75.35" width="110px" height="75px"><defs><style>.cls-1{fill:#00c266;}</style></defs><title>content</title><g id="Layer_2" data-name="Layer 2"><g id="op"><g id="content"><g id="operations"><path class="cls-1" d="M0,70.21l.1-1.1c1.35-1.56,2.7-3.12,4-4.7,1.82-2.16,3.62-4.34,5.45-6.5a3.12,3.12,0,0,0,.73-2q0-25.6,0-51.22c0-1.92.58-3.49,2.41-4.29A5.74,5.74,0,0,1,15,0Q34.63,0,54.25,0H95a6.84,6.84,0,0,1,2.4.34,3.79,3.79,0,0,1,2.45,3.46c0,.56,0,1.11,0,1.67q0,25.31,0,50.6a2.54,2.54,0,0,0,.49,1.5c3.08,3.76,6.2,7.47,9.31,11.2a4.26,4.26,0,0,0,.38.35v1.23A15.85,15.85,0,0,1,108.75,73a6.32,6.32,0,0,1-5.49,2.36q-48.21,0-96.43,0c-.38,0-.76,0-1.14,0A5,5,0,0,1,2,73.62,25.83,25.83,0,0,1,0,70.21Zm55.52-67H20.63a4.15,4.15,0,0,0-2.87.83,4,4,0,0,0-1.31,3.37q0,18.22,0,36.46c0,1.48,0,3,0,4.42a5.44,5.44,0,0,0,.64,2.57c1.12,2,2.54,2,3.94,2H90.36c2.12,0,3.4-.82,3.91-2.57a6.2,6.2,0,0,0,.17-1.73q0-20.55,0-41.11c0-.29,0-.58,0-.87a3.55,3.55,0,0,0-1.19-2.46,4.13,4.13,0,0,0-3-.91Zm16.69,66c-.87-1-1.66-1.87-2.3-2.79a2.12,2.12,0,0,0-2-.93q-12.21,0-24.44,0a2.88,2.88,0,0,0-2.79,1.28c-.54.83-1.24,1.56-2,2.45Zm-16.83,4h7.44c1.22,0,1.78-.33,1.77-1s-.51-1-1.75-1H48a4.35,4.35,0,0,0-.95.07.91.91,0,0,0-.44,1.61,1.9,1.9,0,0,0,1.11.34C50.3,73.26,52.84,73.24,55.38,73.24Z"/><path class="cls-1" d="M82.09,32v4.77c-1.44.3-2.89.62-4.35.88a1.55,1.55,0,0,0-1.18,2.51c.71,1.11,1.45,2.21,2.2,3.3.37.52.29.81-.54,1.38a6.28,6.28,0,0,0-1.66,1.71c-.55.84-.93.84-1.47.46-1.11-.77-2.24-1.51-3.36-2.28a1.47,1.47,0,0,0-2.27.9q-.43,2.05-.81,4.11a.82.82,0,0,1-.82.67c-1.15,0-2.29,0-3.44,0a.8.8,0,0,1-.81-.67c-.25-1.34-.52-2.68-.79-4a1.53,1.53,0,0,0-2.37-1c-1.13.77-2.28,1.52-3.41,2.31A.79.79,0,0,1,56,47c-1-.95-2-1.87-3-2.82,1-1.48,1.85-2.77,2.69-4.07a1.6,1.6,0,0,0-1-2.43l-4.56-.9V32L54.71,31a1.53,1.53,0,0,0,1-2.32c-.84-1.33-1.72-2.64-2.58-4l3.41-3.35c1.23.81,2.52,1.66,3.79,2.52a1.49,1.49,0,0,0,2.46-1c.26-1.3.54-2.59.76-3.9.12-.72.51-.78,1.35-.68a10.29,10.29,0,0,0,2.48,0c.83-.1,1.18,0,1.29.71.2,1.27.47,2.54.73,3.81a1.49,1.49,0,0,0,2.48,1c1.26-.85,2.53-1.68,3.89-2.58,1,1,2,2.05,3,3.1a.87.87,0,0,1,0,.8c-.74,1.2-1.54,2.37-2.32,3.56A1.45,1.45,0,0,0,77.37,31ZM60.34,34.34a5.77,5.77,0,0,0,5.73,5.76,5.84,5.84,0,0,0,5.65-5.7,5.69,5.69,0,0,0-11.38-.06Z"/><path class="cls-1" d="M50.69,17.16l.9,3.23c-1,.52-2,1-3,1.51a1.06,1.06,0,0,0-.22,1.89c.65.59,1.3,1.18,2,1.73.39.31.49.62.18,1,0,0,0,.05,0,.08-.44.72-.73,1.8-1.36,2.06s-1.55-.38-2.36-.56A4.79,4.79,0,0,0,45.06,28c-.49.08-.65.55-.57,1.11a19,19,0,0,1,.18,2.62,1,1,0,0,1-.49.72c-.62.24-1.31.32-1.93.55s-1,.08-1.26-.59a23.29,23.29,0,0,0-1.05-2.2A1.07,1.07,0,0,0,38.1,30c-.59.65-1.2,1.28-1.73,2a.69.69,0,0,1-1.1.18c-.34-.22-.71-.4-1.06-.61-1.27-.77-1.27-.78-.83-2.17.17-.56.4-1.1.58-1.66a1.09,1.09,0,0,0-1.18-1.56c-.91,0-1.81.14-2.71.14a.88.88,0,0,1-.68-.43c-.29-.89-.48-1.8-.74-2.79,1-.49,2-1,2.93-1.5s1-1.24.2-1.92-1.35-1.13-2-1.75a.92.92,0,0,1-.18-.85c.41-.83.92-1.61,1.44-2.47,1,.34,2,.69,3.06,1s1.64-.17,1.57-1.22-.12-2.09-.19-3.21c1-.26,1.94-.54,2.9-.72.2,0,.55.24.68.46.41.73.75,1.51,1.13,2.27a1.1,1.1,0,0,0,2,.27c.57-.62,1.14-1.25,1.66-1.92.34-.45.65-.53,1.07-.15l.07.05c.72.44,1.87.75,2,1.35s-.39,1.69-.64,2.55c-.1.37-.37.77-.28,1.08.16.54.45,1.06,1.23,1C48.45,17.25,49.53,17.22,50.69,17.16Zm-10.53.57a4,4,0,0,0,0,8,4.07,4.07,0,0,0,4-4A4,4,0,0,0,40.16,17.73Z"/></g></g></g></g></svg>