<svg xmlns="http://www.w3.org/2000/svg" viewBox="0 0 91.31 91.3" width="91px" height="91px"><defs><style>.cls-1{fill:#00c266;}</style></defs><title>content (2)</title><g id="Layer_2" data-name="Layer 2"><g id="op"><g id="content"><g id="scale"><path class="cls-1" d="M57.89,0H84.28c4.49,0,7,2.56,7,7.07V60c0,4.51-2.53,7-7.07,7H43.45c-1.77,0-2.74-.73-2.78-2s1-2.23,2.75-2.23H63.07q10.49,0,21,0c2.37,0,3-.63,3-3q0-26.23,0-52.47c0-2.35-.65-3-3-3H31.53c-2.37,0-3,.63-3,3q0,19.86,0,39.73c0,.35,0,.7,0,1,0,1.58-.83,2.54-2.12,2.57s-2.12-1-2.13-2.52c0-3.75,0-7.5,0-11.25V7.19C24.28,2.47,26.76,0,31.49,0Z"/><path class="cls-1" d="M74,14.22c-5.09,0-9.78,0-14.47,0-1.7,0-2.9-1.34-2.25-2.66A3,3,0,0,1,59.32,10c6.59-.11,13.19-.08,19.78,0a2.06,2.06,0,0,1,2.24,2.27q0,9.81,0,19.63a2.14,2.14,0,1,1-4.24-.09c0-4.68,0-9.37,0-14.41-.56.5-.92.79-1.24,1.11L15.12,79.2c-.49.49-1,1-1.5,1.47a2,2,0,0,1-2.95.06,2,2,0,0,1,0-3.06c2-2.12,4.15-4.19,6.23-6.27L72.82,15.45C73.13,15.14,73.41,14.81,74,14.22Z"/><path class="cls-1" d="M19.12,91.29c-4.25,0-8.5,0-12.75,0A6,6,0,0,1,0,84.9Q0,72,0,59.11A6,6,0,0,1,6.31,52.8c4.25,0,8.5,0,12.74,0,1.78,0,2.67.73,2.69,2.1s-.92,2.15-2.64,2.16H7c-2.15,0-2.68.51-2.68,2.61q0,12.36,0,24.73c0,2.13.5,2.63,2.66,2.63H31.67c2,0,2.56-.54,2.57-2.57,0-4.14,0-8.29,0-12.44,0-1.91,1.59-3.11,3-2.23a2.9,2.9,0,0,1,1.18,2c.1,4.54.1,9.09,0,13.63a5.9,5.9,0,0,1-6,5.82C28,91.32,23.56,91.29,19.12,91.29Z"/></g></g></g></g></svg>