<svg xmlns="http://www.w3.org/2000/svg" viewBox="0 0 107.52 109" width="108px" height="109px"><defs><style>.cls-1{fill:#00c266;}</style></defs><title>content (3)</title><g id="Layer_2" data-name="Layer 2"><g id="op"><g id="content"><g id="security"><path class="cls-1" d="M56.52,109a2.82,2.82,0,0,1-1.16-2.63c0-4.39,0-8.77,0-13.16,0-1.77.61-2.36,2.4-2.37h3v-1.3c0-4,0-8.05,0-12.07A17.27,17.27,0,0,1,69.22,62.8c3.76-2.25,7.58-4.39,11.32-6.67a7.71,7.71,0,0,1,8.38-.27c.24-.84.49-1.64.71-2.45,1.23-4.55,2.41-9.12,3.68-13.67a7.32,7.32,0,0,1,7.57-5.42,7,7,0,0,1,6.54,5.9,8.79,8.79,0,0,1-.2,3.57c-2.51,9.57-5.09,19.11-7.64,28.67a10.29,10.29,0,0,1-3.33,5.21c-2.35,2-4.61,4.09-7,6a6.87,6.87,0,0,0-2.84,7.19c1,0,2.07,0,3.15,0,2.1,0,2.58,1.29,1.85,4.37a22.56,22.56,0,0,0,.21,10.68,2.69,2.69,0,0,1-1,3.1ZM82.9,91a2.46,2.46,0,0,0,.07-.33,5.42,5.42,0,0,0,0-.57,10,10,0,0,1,4.18-8.94c2.32-1.84,4.49-3.87,6.78-5.76a8.1,8.1,0,0,0,2.65-4.17c1.14-4.46,2.36-8.9,3.55-13.35,1.35-5,2.71-10.07,4-15.11a3.52,3.52,0,0,0-5-4.21,4.14,4.14,0,0,0-2.13,2.71c-1.55,5.82-3.13,11.63-4.66,17.45a3.68,3.68,0,0,0-.08,1.65c.63,3.12-.14,5.88-2.74,7.6-3.58,2.37-7.39,4.41-11.14,6.52A1.74,1.74,0,0,1,75.87,73a2,2,0,0,1,1.28-1.94q4.78-2.73,9.53-5.49c2.09-1.21,2.82-3.46,1.75-5.29s-3.22-2.27-5.35-1c-3.92,2.3-7.85,4.58-11.75,6.91a13.34,13.34,0,0,0-6.49,11.3c0,3.86,0,7.72,0,11.58V91ZM59.83,105h29V94h-29Z"/><path class="cls-1" d="M17,109a2.81,2.81,0,0,1-1.15-2.63c.05-4.39,0-8.77,0-13.16,0-1.77.6-2.36,2.39-2.37h3c.37-2.72-.15-5-2.36-6.74-2.69-2.16-5.25-4.48-7.87-6.72a9.16,9.16,0,0,1-2.9-4.6C5.49,63.05,2.85,53.32.27,43.58a7.22,7.22,0,0,1,5.08-9,7.35,7.35,0,0,1,9,5.32c1.39,5,2.71,10.06,4.07,15.08.08.29.18.57.29.93,3.06-1.77,5.91-1.3,8.77.48,3.56,2.2,7.21,4.24,10.81,6.37a17.4,17.4,0,0,1,8.51,14.92c0,4.34,0,8.69,0,13.21,1.12,0,2.2,0,3.27,0,2.11,0,2.58,1.29,1.85,4.37a22.44,22.44,0,0,0,.22,10.68,2.69,2.69,0,0,1-1,3.1Zm26.1-18c0-4.69.06-9.27,0-13.84a12.39,12.39,0,0,0-5.92-10.63c-.92-.6-1.88-1.13-2.82-1.68-3.26-1.92-6.5-3.86-9.78-5.73a3.59,3.59,0,0,0-5.47,2.23,3.9,3.9,0,0,0,2.07,4.17c3.26,1.9,6.55,3.76,9.81,5.67a1.85,1.85,0,0,1,.87,2.58,1.81,1.81,0,0,1-2.66.56c-3.44-2-6.9-3.91-10.29-6a6.6,6.6,0,0,1-3.4-6.8,13.17,13.17,0,0,0-.63-5.4c-.48-1.87-1-3.72-1.49-5.58-.85-3.18-1.68-6.36-2.56-9.52A3.81,3.81,0,0,0,7,38.15a3.37,3.37,0,0,0-3.21,2.71A6,6,0,0,0,4,43.42c2.45,9.26,5,18.51,7.41,27.78a8.14,8.14,0,0,0,2.69,4.22c2.48,2,4.88,4.19,7.35,6.26a10.23,10.23,0,0,1,3.56,8V91Zm5.71,3h-29v11h29Z"/><path class="cls-1" d="M80.5,0l1.43,0a2.84,2.84,0,0,1,1.15,2.63c0,7.15.07,14.29,0,21.44-.28,18.42-8.57,32.08-24.66,41a30.63,30.63,0,0,1-3.32,1.71,2.64,2.64,0,0,1-1.91.09c-7.91-3.73-14.82-8.73-19.89-16A44.88,44.88,0,0,1,25,25.2c-.07-7.52,0-15,0-22.57A2.88,2.88,0,0,1,26,.05l1.43,0c1.43.83,2.8,1.77,4.29,2.46C39.39,6,46.46,4.27,53.23.06L54.69,0c1.32.7,2.62,1.44,4,2.09C66.35,5.86,73.61,4.79,80.5,0ZM28.83,4.93V6.22c0,6.52,0,13,0,19.56a28.82,28.82,0,0,0,.2,3.35C31,43.78,38.39,54.61,51.21,61.88a6.39,6.39,0,0,0,6.31,0C72,53.48,79.48,41.07,79.81,24.4c.12-6.07,0-12.14,0-18.21V5.14c-.15,0-.2-.08-.22-.07l-.93.44a23.73,23.73,0,0,1-9.16,2.42A24.85,24.85,0,0,1,55.61,4.44a2.38,2.38,0,0,0-2.6,0A25.25,25.25,0,0,1,40.69,8,24.47,24.47,0,0,1,28.83,4.93Z"/><path class="cls-1" d="M75.8,21.14a45,45,0,0,1-1.35,13.68A38,38,0,0,1,55.3,58.58a2.41,2.41,0,0,1-2.56,0C39.52,51.16,32.65,39.9,32.24,24.74c-.1-3.74,0-7.49,0-11.23,0-2,.74-2.7,2.71-2.34A27.5,27.5,0,0,0,52.68,8.62a2.7,2.7,0,0,1,2.67,0,27.41,27.41,0,0,0,17.73,2.55c2-.36,2.72.3,2.72,2.34Zm-3.74-6a.49.49,0,0,0-.19-.07l-.57,0A30.44,30.44,0,0,1,55,12.45a2,2,0,0,0-1.89,0,31.14,31.14,0,0,1-15,2.76c-.7,0-1.4-.12-2.19-.2,0,3.44-.09,6.77,0,10.09.43,12.94,6.23,22.78,17.27,29.55a1.5,1.5,0,0,0,1.75,0A35.72,35.72,0,0,0,66.77,43.32C72.52,34.66,72.52,24.94,72.06,15.13Z"/><path class="cls-1" d="M50.35,35.61c.39-.38.7-.65,1-.94L63.68,22.33c.21-.22.41-.44.64-.64a1.81,1.81,0,0,1,2.54,2.58c-.17.2-.36.38-.55.57L52.2,38.94c-1.43,1.44-2.19,1.44-3.61,0l-6.08-6.09c-1-1-1.13-2.09-.34-2.89s1.88-.7,2.88.3C46.79,32,48.51,33.77,50.35,35.61Z"/></g></g></g></g></svg>