<svg xmlns="http://www.w3.org/2000/svg" xmlns:xlink="http://www.w3.org/1999/xlink" viewBox="0 0 2507.39 784.91" width="2507px" height="784px"><defs><style>.cls-1{opacity:0.37;}.cls-2,.cls-3,.cls-4,.cls-5,.cls-6,.cls-7,.cls-8{fill:none;stroke-miterlimit:10;}.cls-2{stroke:url(#linear-gradient);}.cls-3{stroke:url(#linear-gradient-2);}.cls-4{stroke:url(#linear-gradient-3);}.cls-5{stroke:url(#linear-gradient-4);}.cls-6{stroke:url(#linear-gradient-5);}.cls-7{stroke:url(#linear-gradient-6);}.cls-8{stroke:url(#linear-gradient-7);}</style><linearGradient id="linear-gradient" x1="144.61" y1="243.02" x2="2470.63" y2="328.48" gradientUnits="userSpaceOnUse"><stop offset="0" stop-color="#00db87"/><stop offset="0.23" stop-color="#00d07d"/><stop offset="0.64" stop-color="#00bf6f"/></linearGradient><linearGradient id="linear-gradient-2" x1="147.38" y1="304.51" x2="2475.49" y2="390.04" xlink:href="#linear-gradient"/><linearGradient id="linear-gradient-3" x1="148.57" y1="388.67" x2="2485.44" y2="474.53" xlink:href="#linear-gradient"/><linearGradient id="linear-gradient-4" x1="145.04" y1="397.99" x2="2498.77" y2="484.46" xlink:href="#linear-gradient"/><linearGradient id="linear-gradient-5" x1="109.04" y1="367.94" x2="2508.83" y2="456.1" xlink:href="#linear-gradient"/><linearGradient id="linear-gradient-6" x1="56.15" y1="356.84" x2="2506.86" y2="446.87" xlink:href="#linear-gradient"/><linearGradient id="linear-gradient-7" x1="11.82" y1="351.59" x2="2491.85" y2="442.7" xlink:href="#linear-gradient"/></defs><title>content (8)</title><g id="Layer_2" data-name="Layer 2"><g id="homepage"><g id="content"><g id="image_decor" data-name="image decor" class="cls-1"><path class="cls-2" d="M141.65,334.88c58.1-76.9,129.83-138.72,220.12-174.16,61.19-24,126.42-32.37,191.86-27,93.48,7.68,200.78,39.47,274.11,97.14,94.72,74.5,191.5,144.91,310.24,178.63,49.59,14.08,101.08,22.12,152.7,21.63,53.08-.51,104.08-13.27,156.24-21.43,79.8-12.48,159.13-9.2,239.33-2.48,95.43,8,187.6,7.35,282.56-6.21,138-19.7,280.43-56.17,398.16-133.66,38.61-25.42,73.28-55.81,108.7-85.35" transform="translate(0 -22.19)"/><path class="cls-3" d="M142.73,442.38c61.71-80.93,131.33-169.06,223.05-216.79,59.19-30.8,126.59-39.46,192.5-33,93.88,9.22,194.42,42.76,270.39,97.49,103.62,74.64,217.82,138.71,344.16,167.5,55.75,12.71,113.07,18.41,170.23,15.87,25.42-1.13,51.65-3,76.57-8.27,29.84-6.31,58.21-21.27,86.09-33.25,68.91-29.59,138.45-49.28,214.22-44,85.08,5.94,165,37.65,247.71,55.5,84.26,18.19,164.65,4.75,246.33-19.76,54.57-16.37,107.81-38.73,155.7-69.82a453.22,453.22,0,0,0,110.47-101.68" transform="translate(0 -22.19)"/><path class="cls-4" d="M143.51,536.49c74.18-74.59,136.6-163.75,222.86-225.33C506.9,210.83,698,261,831.36,348.73c106.79,70.23,225.41,135.8,351.71,164.9,59.24,13.64,120,17.19,180.6,12.52,29.35-2.26,59-5.77,87.86-11.91,35.85-7.65,67.6-26.15,98-46C1617.23,424,1681.1,368.48,1760.84,347c76.64-20.61,152,.48,221.64,33.62,73.94,35.15,148.14,92.23,231.25,102.53,53,6.56,113.07-20.46,159-45.47s87.34-59.23,117.4-102.17" transform="translate(0 -22.19)"/><path class="cls-5" d="M137.93,597.33c93-39.76,153-129.75,229.2-192.73,55.21-45.64,118.59-77.51,191.33-79.34,95-2.4,196.13,32.48,274.83,82.36q88.5,56.08,181.5,106.5c46.39,25.08,93.55,49.92,144.38,64.77,127.15,37.15,279,15,392.45-50.65,40.2-23.28,78.3-50.38,114.54-79.39,44.16-35.33,81.7-78.52,126-114,60.68-48.53,132.59-84.79,211.52-63.57,82.14,22.08,148,86.66,210.54,140.61,40.88,35.23,102.17,99.58,162.64,92.58,46-5.32,95.8-48.62,123.86-84.14" transform="translate(0 -22.19)"/><path class="cls-6" d="M99.58,628.41C135,622.14,170.22,614.13,204,601.64c64.47-23.82,111.38-67.09,163.72-109.89,55.66-45.5,116.27-84.84,189-94.62,96.6-13,195.66,20.16,276.21,70.16C889.06,502.14,945,538.6,999.45,576.8c38.51,27,77.3,55,121.59,71.79,49.17,18.67,102,21.55,154,17.52,84.29-6.53,164.23-27.37,239.31-66.76,101.42-53.19,191.12-127.11,274-205.51,40.12-38,78.31-77.71,116.64-117.45,34.09-35.32,72.86-71.29,119.77-88.45,71.63-26.21,137.14,11.47,188.63,59.89,60.54,56.94,107.23,126.55,160,190.27,21.35,25.75,62.55,85.09,103.09,77.09,11.72-2.31,21.95-12.22,30.51-20.2" transform="translate(0 -22.19)"/><path class="cls-7" d="M45.55,647.87c111.84-15.75,220.44-33.32,320-90.35,62.45-35.78,119.49-79,191.46-94,95.8-20,196.63,10.78,275.85,63.33,51.28,34,99.88,72.86,146.53,113.81,32.51,28.53,65.1,58.7,104.59,77.4,41.43,19.62,87.41,23.86,132.7,21.26a723.71,723.71,0,0,0,230.65-52.56c233.84-96.08,412.9-289.53,575.24-476.48C2070.46,155.11,2135.69,70.42,2220,99.43c68.16,23.43,113.94,98.42,149.59,156.27,47.15,76.52,83,161,135.25,234.34" transform="translate(0 -22.19)"/><path class="cls-8" d="M.14,673.72c36-10.49,73.38-16.11,110.29-22.21C188.5,638.62,266.2,624.8,341.24,599c71.65-24.63,139.84-62.49,214.64-77.08,94.5-18.43,198.19,9.65,274.53,65,48.45,35.13,92.63,76.68,136.33,118.34,29.78,28.4,60.33,57.34,97.11,76.53,38.08,19.87,80.24,26.2,122.84,24.54,68.29-2.65,138.63-18.69,203.78-38.62,245.13-75,441.14-252.71,605.43-443,39.92-46.24,78.35-93.72,116.3-141.58,34.15-43.05,66.21-93.61,106.72-130.95,47-43.32,100-37.33,142.31,7.33,65.65,69.31,101.62,170.13,134.75,258.35" transform="translate(0 -22.19)"/></g></g></g></g></svg>