<svg xmlns="http://www.w3.org/2000/svg" viewBox="0 0 116.43 79.17" width="116px" height="79px"><defs><style>.cls-1{fill:#00c266;}</style></defs><title>content (4)</title><g id="Layer_2" data-name="Layer 2"><g id="op"><g id="content"><path id="partners" class="cls-1" d="M116.27,20l.16,1.32c-.94,4.89-4.77,7.6-7.68,11-3.12,3.65-6.4,7.16-9.65,10.7-.55.6-.65.93,0,1.48a8,8,0,0,1,3.1,4.48,8.42,8.42,0,0,1-6,9.59c-.78.2-.91.46-.81,1.2.63,4.4-4.53,9.8-9.25,8.69-.77-.18-.67.3-.8.69-1.13,3.31-3.22,5.62-6.73,6.34a6.78,6.78,0,0,1-6-1.7c-.77-.66-1.5-1.36-2.35-2.15C69.45,74.47,67.12,76,65.24,78a3.65,3.65,0,0,1-5.14.23c-2.55-2.32-5.18-4.58-7.63-7-.64-.64-.95-.51-1.48.09-1.08,1.21-2.22,2.37-3.36,3.53A7.26,7.26,0,0,1,37,75.05a9,9,0,0,1-2.63-3.75c-5.15,2.34-9.56.57-11.79-4.7-.19-.44-.32-.51-.81-.38a8.42,8.42,0,0,1-10.35-6.77,7.37,7.37,0,0,1,.77-4.36C8.47,53.53,5.7,51,5.76,45.83a3.61,3.61,0,0,1,.91-2.34q2.64-3,5.45-5.75c.52-.52.43-.76-.08-1.19C9,34,5.94,31.35,2.89,28.75c-4.73-4-3.69-10.19,3.41-14a7.66,7.66,0,0,0,3.6-4.12c2.41-6.49,8.33-9.07,13.78-6.78C26.25,5,28.76,6.14,31.4,7a6.07,6.07,0,0,0,4,0c2.49-.87,4.9-2,7.32-3a14.13,14.13,0,0,1,12.55.35l.1,0a3.65,3.65,0,0,0,4.5.06,10.6,10.6,0,0,1,10.22-.33C72.8,5.39,75.47,6.8,78.2,8.07a8.25,8.25,0,0,0,8.21-.43C90.21,5.32,94,2.9,97.76.6a4,4,0,0,1,5.21.84c3.94,4.77,7.67,9.7,11.49,14.56C115.39,17.19,115.67,18.66,116.27,20ZM54.5,8.27a10.22,10.22,0,0,0-9.3-.87c-1.76.65-3.47,1.46-5.2,2.2a15.52,15.52,0,0,1-12.63,0Q24.94,8.52,22.49,7.5A5.71,5.71,0,0,0,15.79,9Q10.6,14.76,5.45,20.57c-1.63,1.84-1.49,3.58.38,5.19,3,2.59,6.06,5.13,9,7.77.76.66,1.13.62,1.76-.11a10.54,10.54,0,0,1,4.3-3.4c4.39-1.53,9.82,1.87,10.52,6.62.07.46,0,.81.71.86a8.24,8.24,0,0,1,7.94,9.89c-.06.38-.08.61.39.75,3.6,1.06,5.26,3.84,6.18,7.19.19.67.47.75,1.06.78a8.26,8.26,0,0,1,7.13,10.7A.89.89,0,0,0,55.11,68c1.79,1.62,3.52,3.31,5.33,4.92s3.55,1.35,5.46-.77a3.27,3.27,0,0,0-.19-5.07L61.3,63c-.69-.65-1.85-1.25-1.93-2s1.19-1.4,1.74-2.2.87-.6,1.47,0c4.19,3.93,8.41,7.82,12.64,11.72,1.91,1.75,3.72,1.59,5.57-.44s1.65-3.66-.25-5.42q-5.61-5.21-11.22-10.41c-.68-.63-1.91-1.19-1.86-2s1.17-1.38,1.74-2.13.85-.64,1.48-.05C75.42,54.53,80.2,58.93,85,63.35a4.56,4.56,0,0,0,1.67,1.14c1.75.55,3.54-.35,4.76-2.41a3.25,3.25,0,0,0-.71-4.21L76.4,44.59c-.71-.66-1.94-1.35-2-2s1.2-1.42,1.8-2.2.83-.54,1.38,0q7,6.6,14.13,13.12a5.19,5.19,0,0,0,1.83,1.3c1.91.64,3.15-.38,4.29-1.71a3.32,3.32,0,0,0-.16-4.86C88.53,39.34,79,30.9,68.33,23.88a6.37,6.37,0,0,0-7-.3c-1.19.64-2.32,1.4-3.5,2.08-4,2.31-8.49.91-11.31-3.52-2.18-3.44-1.19-7.43,2.5-10C50.85,10.84,52.64,9.59,54.5,8.27Zm9.81,10.54a10.06,10.06,0,0,1,6.55,2c3,2.13,5.94,4.29,8.93,6.4A147.73,147.73,0,0,1,95.16,40.46c.64.6.91.51,1.45-.1q7.14-8,14.34-15.92c2-2.16,2.06-4.34.28-6.61L102.8,7A4,4,0,0,0,96.93,6C94.21,7.64,91.52,9.39,88.77,11a12.07,12.07,0,0,1-11.89.6C74.15,10.36,71.47,9,68.74,7.71a7,7,0,0,0-7.14.44c-3.68,2.43-7.24,5-10.85,7.59a3.07,3.07,0,0,0-1.38,2.6A4.57,4.57,0,0,0,56,22.22c1.09-.62,2.14-1.28,3.2-1.93A9.44,9.44,0,0,1,64.31,18.81ZM19.8,62.67a3.84,3.84,0,0,0,2.74-1.24c4.24-4.46,8.51-8.9,12.74-13.36,1.59-1.67,1.49-3.51-.22-5.15-2-2-3.79-2.06-5.49-.28q-6.37,6.6-12.7,13.25c-1.19,1.24-1.55,2.65-.85,3.91A5,5,0,0,0,19.8,62.67Zm3.57-29.11a3.39,3.39,0,0,0-2.61,1.18q-4.68,4.92-9.39,9.83a3.92,3.92,0,0,0-1.06,1.71c-.5,1.85.54,3,1.78,4.08a3.2,3.2,0,0,0,4.81-.21c3.14-3.27,6.26-6.56,9.41-9.81,1-1.06,1.67-2.17,1-3.65A4.7,4.7,0,0,0,23.37,33.56ZM42.79,55.88c.07-1.4-.93-2.25-1.89-3.11a3.22,3.22,0,0,0-4.75.12q-4.42,4.57-8.77,9.19a3.15,3.15,0,0,0,0,4.49c.31.33.64.64,1,.94a3.26,3.26,0,0,0,4.76-.1c2.93-3,5.81-6.06,8.71-9.1A3.14,3.14,0,0,0,42.79,55.88ZM51.4,64.1c.07-1.45-1-2.33-2-3.19a3.23,3.23,0,0,0-4.67.14c-1.85,1.88-3.68,3.79-5.47,5.73a3.25,3.25,0,0,0,.13,4.75c.32.32.64.64,1,.93a3.2,3.2,0,0,0,4.5-.15c1.91-1.92,3.76-3.91,5.63-5.88A3,3,0,0,0,51.4,64.1Z"/></g></g></g></svg>